<?xml version="1.0" standalone="no"?>
<!DOCTYPE svg PUBLIC "-//W3C//DTD SVG 20010904//EN"
 "http://www.w3.org/TR/2001/REC-SVG-20010904/DTD/svg10.dtd">
<svg version="1.0" xmlns="http://www.w3.org/2000/svg"
 width="300.000000pt" height="234.000000pt" viewBox="0 0 300.000000 234.000000"
 preserveAspectRatio="xMidYMid meet">
<metadata>
Created by potrace 1.10, written by Peter Selinger 2001-2011
</metadata>
<g transform="translate(0.000000,234.000000) scale(0.050000,-0.050000)"
fill="#000000" stroke="none">
<path d="M1590 3751 c-569 -130 -972 -563 -1099 -1181 -34 -164 -28 -250 22
-300 26 -27 23 -30 -29 -30 -82 0 -117 -46 -86 -113 20 -45 18 -56 -18 -82
-95 -66 -5 -160 172 -180 105 -12 147 39 94 114 -29 42 -29 48 1 65 18 10 33
36 33 57 0 21 10 39 22 39 23 0 9 -482 -16 -568 -9 -34 -13 -35 -29 -7 -47 84
-303 110 -323 33 -25 -95 227 -199 307 -127 38 35 39 33 39 -97 0 -182 83
-210 111 -37 25 153 46 157 48 9 1 -139 28 -206 83 -206 28 0 58 92 58 180 0
43 9 83 20 90 12 8 20 -33 20 -108 0 -168 25 -226 95 -218 53 6 55 11 61 136
9 182 44 205 44 29 1 -204 66 -300 148 -219 26 27 32 79 32 280 0 280 -10 320
-102 402 -231 205 -238 214 -238 337 0 190 61 233 231 162 164 -69 14 130
-159 210 -216 99 -249 192 -145 405 254 519 1075 817 1590 575 366 -172 575
-711 471 -1217 -59 -289 -316 -689 -421 -656 -86 27 -227 190 -227 263 0 38
-9 69 -20 69 -37 0 -1 -283 48 -383 18 -35 32 -69 32 -76 0 -22 -203 -78 -300
-82 -260 -12 -324 44 -371 320 -37 223 -32 211 -127 260 -41 21 -169 97 -283
168 -220 137 -230 139 -261 58 -39 -103 38 -218 259 -385 l67 -50 23 -340 c28
-394 22 -378 158 -412 338 -84 950 11 1138 176 57 50 359 -231 459 -427 34
-69 38 -71 38 -24 0 148 -140 535 -220 607 -36 32 -32 40 90 203 617 817 272
1922 -700 2241 -197 64 -637 84 -840 37z"/>
<path d="M3900 1561 c0 -369 1 -381 40 -381 59 0 54 745 -5 756 -32 6 -35 -22
-35 -375z"/>
<path d="M353 1818 c-45 -65 -13 -106 115 -146 128 -41 199 -20 188 54 -13 90
-253 163 -303 92z"/>
<path d="M3373 1559 c-199 -157 14 -500 218 -351 32 24 41 24 60 -3 58 -79 89
-14 89 184 0 188 -37 257 -90 171 -8 -13 -28 -9 -56 10 -60 42 -159 37 -221
-11z m193 -42 c118 -62 98 -237 -30 -268 -124 -30 -202 147 -107 242 55 55 75
59 137 26z"/>
<path d="M4202 1572 c-97 -54 -128 -183 -72 -292 52 -101 192 -134 286 -69 40
28 44 28 44 0 0 -18 17 -31 40 -31 37 0 40 13 40 200 0 187 -3 200 -40 200
-22 0 -40 -10 -40 -21 0 -12 -20 -8 -44 10 -54 38 -149 39 -214 3z m223 -87
c77 -68 8 -245 -95 -245 -57 0 -130 83 -130 148 0 137 120 189 225 97z"/>
<path d="M4841 1566 c-34 -24 -51 -27 -56 -10 -5 13 -26 24 -47 24 -35 0 -38
-16 -38 -200 0 -183 3 -200 38 -200 32 0 39 19 46 129 17 275 182 306 192 36
5 -149 10 -165 45 -165 34 0 39 14 39 111 0 156 42 228 133 229 56 0 67 -34
67 -202 0 -125 4 -138 40 -138 53 0 60 302 9 376 -40 57 -148 60 -198 6 -34
-38 -35 -38 -73 0 -47 47 -133 49 -197 4z"/>
</g>
</svg>
